<svg width="20" height="20" viewBox="0 0 20 20" fill="none" xmlns="http://www.w3.org/2000/svg">
<path d="M2.39961 4.79961C1.95961 4.79961 1.59961 5.15961 1.59961 5.59961V15.9996C1.59961 16.8796 2.31961 17.5996 3.19961 17.5996H13.5996C14.0396 17.5996 14.3996 17.2396 14.3996 16.7996C14.3996 16.3596 14.0396 15.9996 13.5996 15.9996H3.99961C3.55961 15.9996 3.19961 15.6396 3.19961 15.1996V5.59961C3.19961 5.15961 2.83961 4.79961 2.39961 4.79961ZM15.9996 1.59961H6.39961C5.51961 1.59961 4.79961 2.31961 4.79961 3.19961V12.7996C4.79961 13.6796 5.51961 14.3996 6.39961 14.3996H15.9996C16.8796 14.3996 17.5996 13.6796 17.5996 12.7996V3.19961C17.5996 2.31961 16.8796 1.59961 15.9996 1.59961ZM9.59961 11.5996V4.39961L13.9756 7.67961C14.1916 7.83961 14.1916 8.15961 13.9756 8.31961L9.59961 11.5996Z" fill="black" fill-opacity="0.5"/>
</svg>
