<svg width="20" height="20" viewBox="0 0 20 20" fill="none" xmlns="http://www.w3.org/2000/svg">
<path d="M11.2009 1.2002H8.00086C7.56086 1.2002 7.20086 1.5602 7.20086 2.0002C7.20086 2.4402 7.56086 2.8002 8.00086 2.8002H11.2009C11.6409 2.8002 12.0009 2.4402 12.0009 2.0002C12.0009 1.5602 11.6409 1.2002 11.2009 1.2002ZM9.60086 11.6002C10.0409 11.6002 10.4009 11.2402 10.4009 10.8002V7.6002C10.4009 7.1602 10.0409 6.8002 9.60086 6.8002C9.16086 6.8002 8.80086 7.1602 8.80086 7.6002V10.8002C8.80086 11.2402 9.16086 11.6002 9.60086 11.6002ZM15.2249 6.3122L15.8249 5.7122C16.1289 5.4082 16.1369 4.9042 15.8249 4.5922L15.8169 4.5842C15.5049 4.2722 15.0089 4.2802 14.6969 4.5842L14.0969 5.1842C12.8569 4.1922 11.2969 3.6002 9.60086 3.6002C5.76086 3.6002 2.49686 6.7682 2.40086 10.6082C2.29686 14.6722 5.55286 18.0002 9.60086 18.0002C13.5849 18.0002 16.8009 14.7762 16.8009 10.8002C16.8009 9.1042 16.2089 7.5442 15.2249 6.3122ZM9.60086 16.4002C6.50486 16.4002 4.00086 13.8962 4.00086 10.8002C4.00086 7.7042 6.50486 5.2002 9.60086 5.2002C12.6969 5.2002 15.2009 7.7042 15.2009 10.8002C15.2009 13.8962 12.6969 16.4002 9.60086 16.4002Z" fill="black" fill-opacity="0.5"/>
</svg>
