<svg width="20" height="20" viewBox="0 0 20 20" fill="none" xmlns="http://www.w3.org/2000/svg">
<path d="M15.2004 2.40039H4.00039C3.11239 2.40039 2.40039 3.12039 2.40039 4.00039V15.2004C2.40039 16.0804 3.11239 16.8004 4.00039 16.8004H15.2004C16.0804 16.8004 16.8004 16.0804 16.8004 15.2004V4.00039C16.8004 3.12039 16.0884 2.40039 15.2004 2.40039ZM15.2004 15.2004H4.00039V5.60039H15.2004V15.2004ZM10.8004 10.4004C10.8004 11.0644 10.2644 11.6004 9.60039 11.6004C8.93639 11.6004 8.40039 11.0644 8.40039 10.4004C8.40039 9.73639 8.93639 9.20039 9.60039 9.20039C10.2644 9.20039 10.8004 9.73639 10.8004 10.4004ZM9.60039 7.20039C7.41639 7.20039 5.55239 8.52839 4.80039 10.4004C5.55239 12.2724 7.41639 13.6004 9.60039 13.6004C11.7844 13.6004 13.6484 12.2724 14.4004 10.4004C13.6484 8.52839 11.7844 7.20039 9.60039 7.20039ZM9.60039 12.4004C8.49639 12.4004 7.60039 11.5044 7.60039 10.4004C7.60039 9.29639 8.49639 8.40039 9.60039 8.40039C10.7044 8.40039 11.6004 9.29639 11.6004 10.4004C11.6004 11.5044 10.7044 12.4004 9.60039 12.4004Z" fill="black" fill-opacity="0.5"/>
</svg>
