<svg width="20" height="20" viewBox="0 0 20 20" fill="none" xmlns="http://www.w3.org/2000/svg">
<path d="M10.1448 5.44C9.83278 5.16 9.36078 5.16 9.04878 5.44C7.48078 6.848 7.20078 8.672 7.20078 9.6C7.20078 10.52 7.48078 12.352 9.05678 13.76C9.36878 14.04 9.84078 14.04 10.1528 13.76C11.7208 12.352 12.0008 10.528 12.0008 9.6C12.0008 8.68 11.7208 6.848 10.1448 5.44Z" fill="black" fill-opacity="0.5"/>
<path d="M7.23278 13.496C6.96878 13.56 6.68878 13.6 6.40078 13.6C4.19278 13.6 2.40078 11.808 2.40078 9.6C2.40078 7.392 4.19278 5.6 6.40078 5.6C6.68878 5.6 6.96878 5.64 7.23278 5.704C7.54478 5.256 7.93678 4.808 8.42478 4.4C7.80078 4.152 7.12078 4 6.40078 4C3.31278 4 0.800781 6.512 0.800781 9.6C0.800781 12.688 3.31278 15.2 6.40078 15.2C7.12078 15.2 7.80078 15.048 8.42478 14.8C7.93678 14.392 7.54478 13.944 7.23278 13.496Z" fill="black" fill-opacity="0.5"/>
<path d="M12.8008 4C12.0808 4 11.4008 4.152 10.7768 4.4C11.2648 4.808 11.6568 5.256 11.9688 5.704C12.2328 5.64 12.5128 5.6 12.8008 5.6C15.0088 5.6 16.8008 7.392 16.8008 9.6C16.8008 11.808 15.0088 13.6 12.8008 13.6C12.5128 13.6 12.2328 13.56 11.9688 13.496C11.6568 13.944 11.2648 14.392 10.7768 14.8C11.4008 15.048 12.0808 15.2 12.8008 15.2C15.8888 15.2 18.4008 12.688 18.4008 9.6C18.4008 6.512 15.8888 4 12.8008 4Z" fill="black" fill-opacity="0.5"/>
</svg>
