<svg width="27" height="32" viewBox="0 0 27 32" fill="none" xmlns="http://www.w3.org/2000/svg">
<path d="M4.57118 0.405128C7.05699 -0.0483277 10.6521 -0.210093 14.9117 0.391688C17.3699 0.738991 20.2412 2.06406 22.179 4.12426C24.2051 6.27837 25.2848 9.36573 23.5858 12.8038C23.2464 13.4907 22.8263 14.0882 22.3462 14.6079C23.3618 15.6002 24.2563 16.6357 24.9899 17.67C29.2307 23.6499 24.2775 32.4561 14.4153 31.4916C10.2375 31.0831 6.99193 29.2549 4.68724 27.2405V30.4366H0.714522V21.7528L4.49393 20.9419C5.49528 22.9343 9.04664 27.1782 14.8228 27.7431C21.715 28.417 23.8435 22.805 21.6936 19.7734C20.9955 18.7891 20.0969 17.7779 19.0532 16.8118C17.6063 17.3984 16.0398 17.6938 14.5758 17.8227C11.1397 18.1251 7.5829 17.5906 5.44359 17.1156C2.76414 16.5207 0.605201 14.4502 0.705244 11.963C0.757531 10.6635 1.45341 9.48529 2.67187 8.69269C3.83989 7.93289 5.38965 7.58034 7.19177 7.58034C10.8085 7.58034 14.4205 8.94922 17.4773 10.8203C18.1296 11.2195 18.7643 11.6466 19.3766 12.0952C19.623 11.8263 19.8278 11.5297 19.9886 11.2044C20.8805 9.39954 20.4055 7.89924 19.2147 6.63312C17.9354 5.27308 15.9272 4.34514 14.3264 4.11898C10.4678 3.57386 7.32655 3.73994 5.32147 4.1057C3.6333 4.41365 1.88941 4.90777 1.25632 5.10796L0 1.53284C0.748734 1.29608 2.66667 0.752547 4.57118 0.405128ZM7.19177 11.3488C5.88481 11.3488 5.21071 11.6106 4.91866 11.8006C4.67707 11.9578 4.67661 12.0647 4.67492 12.1067C4.66706 12.3025 4.96951 13.1401 6.34905 13.4464C8.26882 13.8726 11.362 14.321 14.2088 14.0704C14.5708 14.0386 14.919 13.9965 15.2527 13.9442C12.6079 12.3383 9.7703 11.3488 7.19177 11.3488Z" fill="black"/>
</svg>
