<svg width="18" height="171" viewBox="0 0 18 171" fill="none" xmlns="http://www.w3.org/2000/svg" aria-hidden="true">
  <path d="M8.80064 10.958L12.1206 12.966C12.7286 13.334 13.4726 12.79 13.3126 12.102L12.4326 8.326L15.3686 5.782C15.9046 5.318 15.6166 4.438 14.9126 4.382L11.0486 4.054L9.53664 0.486C9.26464 -0.162 8.33664 -0.162 8.06464 0.486L6.55264 4.046L2.68864 4.374C1.98464 4.43 1.69664 5.31 2.23264 5.774L5.16864 8.318L4.28864 12.094C4.12864 12.782 4.87264 13.326 5.48064 12.958L8.80064 10.958Z" fill="black" fill-opacity="0.5"/>
  <path d="M1.5998 32.9422C1.1598 32.9422 0.799805 33.3022 0.799805 33.7422V44.1422C0.799805 45.0222 1.5198 45.7422 2.3998 45.7422H12.7998C13.2398 45.7422 13.5998 45.3822 13.5998 44.9422C13.5998 44.5022 13.2398 44.1422 12.7998 44.1422H3.1998C2.7598 44.1422 2.3998 43.7822 2.3998 43.3422V33.7422C2.3998 33.3022 2.0398 32.9422 1.5998 32.9422ZM15.1998 29.7422H5.5998C4.7198 29.7422 3.9998 30.4622 3.9998 31.3422V40.9422C3.9998 41.8222 4.7198 42.5422 5.5998 42.5422H15.1998C16.0798 42.5422 16.7998 41.8222 16.7998 40.9422V31.3422C16.7998 30.4622 16.0798 29.7422 15.1998 29.7422ZM8.7998 39.7422V32.5422L13.1758 35.8222C13.3918 35.9822 13.3918 36.3022 13.1758 36.4622L8.7998 39.7422Z" fill="black" fill-opacity="0.5"/>
  <path d="M7.73227 76.1422C7.45227 76.1422 7.23627 75.8942 7.27627 75.6142L7.99627 70.5422H5.19627C4.49227 70.5422 4.93227 69.9422 4.94827 69.9182C5.95627 68.1342 7.46827 65.4942 9.46827 61.9742C9.54827 61.8302 9.70827 61.7422 9.86827 61.7422C10.1483 61.7422 10.3643 61.9902 10.3243 62.2702L9.60427 67.3422H12.4123C12.7323 67.3422 12.9083 67.4942 12.7323 67.8702C10.1003 72.4622 8.57227 75.1422 8.13227 75.9102C8.05227 76.0542 7.90027 76.1422 7.73227 76.1422Z" fill="black" fill-opacity="0.5"/>
  <path d="M9.344 95.982C9.032 95.702 8.56 95.702 8.248 95.982C6.68 97.39 6.4 99.214 6.4 100.142C6.4 101.062 6.68 102.894 8.256 104.302C8.568 104.582 9.04 104.582 9.352 104.302C10.92 102.894 11.2 101.07 11.2 100.142C11.2 99.222 10.92 97.39 9.344 95.982Z" fill="black" fill-opacity="0.5"/>
  <path d="M6.432 104.038C6.168 104.102 5.888 104.142 5.6 104.142C3.392 104.142 1.6 102.35 1.6 100.142C1.6 97.934 3.392 96.142 5.6 96.142C5.888 96.142 6.168 96.182 6.432 96.246C6.744 95.798 7.136 95.35 7.624 94.942C7 94.694 6.32 94.542 5.6 94.542C2.512 94.542 0 97.054 0 100.142C0 103.23 2.512 105.742 5.6 105.742C6.32 105.742 7 105.59 7.624 105.342C7.136 104.934 6.744 104.486 6.432 104.038Z" fill="black" fill-opacity="0.5"/>
  <path d="M12 94.542C11.28 94.542 10.6 94.694 9.976 94.942C10.464 95.35 10.856 95.798 11.168 96.246C11.432 96.182 11.712 96.142 12 96.142C14.208 96.142 16 97.934 16 100.142C16 102.35 14.208 104.142 12 104.142C11.712 104.142 11.432 104.102 11.168 104.038C10.856 104.486 10.464 104.934 9.976 105.342C10.6 105.59 11.28 105.742 12 105.742C15.088 105.742 17.6 103.23 17.6 100.142C17.6 97.054 15.088 94.542 12 94.542Z" fill="black" fill-opacity="0.5"/>
  <path d="M14.4006 124.143H3.20059C2.31259 124.143 1.60059 124.863 1.60059 125.743V136.943C1.60059 137.823 2.31259 138.543 3.20059 138.543H14.4006C15.2806 138.543 16.0006 137.823 16.0006 136.943V125.743C16.0006 124.863 15.2886 124.143 14.4006 124.143ZM14.4006 136.943H3.20059V127.343H14.4006V136.943ZM10.0006 132.143C10.0006 132.807 9.46459 133.343 8.80059 133.343C8.13659 133.343 7.60059 132.807 7.60059 132.143C7.60059 131.479 8.13659 130.943 8.80059 130.943C9.46459 130.943 10.0006 131.479 10.0006 132.143ZM8.80059 128.943C6.61659 128.943 4.75259 130.271 4.00059 132.143C4.75259 134.015 6.61659 135.343 8.80059 135.343C10.9846 135.343 12.8486 134.015 13.6006 132.143C12.8486 130.271 10.9846 128.943 8.80059 128.943ZM8.80059 134.143C7.69659 134.143 6.80059 133.247 6.80059 132.143C6.80059 131.039 7.69659 130.143 8.80059 130.143C9.90459 130.143 10.8006 131.039 10.8006 132.143C10.8006 133.247 9.90459 134.143 8.80059 134.143Z" fill="black" fill-opacity="0.5"/>
  <path d="M10.4011 154.143H7.20106C6.76106 154.143 6.40106 154.503 6.40106 154.943C6.40106 155.383 6.76106 155.743 7.20106 155.743H10.4011C10.8411 155.743 11.2011 155.383 11.2011 154.943C11.2011 154.503 10.8411 154.143 10.4011 154.143ZM8.80106 164.543C9.24106 164.543 9.60106 164.183 9.60106 163.743V160.543C9.60106 160.103 9.24106 159.743 8.80106 159.743C8.36106 159.743 8.00106 160.103 8.00106 160.543V163.743C8.00106 164.183 8.36106 164.543 8.80106 164.543ZM14.4251 159.255L15.0251 158.655C15.3291 158.351 15.3371 157.847 15.0251 157.535L15.0171 157.527C14.7051 157.215 14.2091 157.223 13.8971 157.527L13.2971 158.127C12.0571 157.135 10.4971 156.543 8.80106 156.543C4.96106 156.543 1.69706 159.711 1.60106 163.551C1.49706 167.615 4.75306 170.943 8.80106 170.943C12.7851 170.943 16.0011 167.719 16.0011 163.743C16.0011 162.047 15.4091 160.487 14.4251 159.255ZM8.80106 169.343C5.70506 169.343 3.20106 166.839 3.20106 163.743C3.20106 160.647 5.70506 158.143 8.80106 158.143C11.8971 158.143 14.4011 160.647 14.4011 163.743C14.4011 166.839 11.8971 169.343 8.80106 169.343Z" fill="black" fill-opacity="0.5"/>
</svg>
