<svg width="16" height="16" viewBox="0 0 16 16" fill="none" xmlns="http://www.w3.org/2000/svg">
<g clip-path="url(#clip0_1097_7406)">
<path d="M7.99967 1.33325H5.66634C5.0475 1.33325 4.45401 1.57908 4.01643 2.01667C3.57884 2.45425 3.33301 3.04775 3.33301 3.66659C3.33301 4.28542 3.57884 4.87892 4.01643 5.3165C4.45401 5.75409 5.0475 5.99992 5.66634 5.99992M7.99967 1.33325V5.99992M7.99967 1.33325H10.333C10.6394 1.33325 10.9428 1.39361 11.2259 1.51087C11.509 1.62813 11.7663 1.8 11.9829 2.01667C12.1996 2.23334 12.3715 2.49056 12.4887 2.77366C12.606 3.05675 12.6663 3.36017 12.6663 3.66659C12.6663 3.973 12.606 4.27642 12.4887 4.55951C12.3715 4.84261 12.1996 5.09983 11.9829 5.3165C11.7663 5.53317 11.509 5.70504 11.2259 5.8223C10.9428 5.93957 10.6394 5.99992 10.333 5.99992M7.99967 5.99992H5.66634M7.99967 5.99992H10.333M7.99967 5.99992V10.6666M5.66634 5.99992C5.0475 5.99992 4.45401 6.24575 4.01643 6.68334C3.57884 7.12092 3.33301 7.71441 3.33301 8.33325C3.33301 8.95209 3.57884 9.54558 4.01643 9.98317C4.45401 10.4208 5.0475 10.6666 5.66634 10.6666M10.333 5.99992C10.0266 5.99992 9.72317 6.06027 9.44008 6.17753C9.15699 6.29479 8.89976 6.46667 8.68309 6.68334C8.46642 6.90001 8.29455 7.15723 8.17729 7.44032C8.06003 7.72342 7.99967 8.02683 7.99967 8.33325C7.99967 8.63967 8.06003 8.94309 8.17729 9.22618C8.29455 9.50927 8.46642 9.7665 8.68309 9.98317C8.89976 10.1998 9.15699 10.3717 9.44008 10.489C9.72317 10.6062 10.0266 10.6666 10.333 10.6666C10.6394 10.6666 10.9428 10.6062 11.2259 10.489C11.509 10.3717 11.7663 10.1998 11.9829 9.98317C12.1996 9.7665 12.3715 9.50927 12.4887 9.22618C12.606 8.94309 12.6663 8.63967 12.6663 8.33325C12.6663 8.02683 12.606 7.72342 12.4887 7.44032C12.3715 7.15723 12.1996 6.90001 11.9829 6.68334C11.7663 6.46667 11.509 6.29479 11.2259 6.17753C10.9428 6.06027 10.6394 5.99992 10.333 5.99992ZM5.66634 10.6666C5.0475 10.6666 4.45401 10.9124 4.01643 11.35C3.57884 11.7876 3.33301 12.3811 3.33301 12.9999C3.33301 13.6188 3.57884 14.2123 4.01643 14.6498C4.45401 15.0874 5.0475 15.3333 5.66634 15.3333C6.28518 15.3333 6.87867 15.0874 7.31626 14.6498C7.75384 14.2123 7.99967 13.6188 7.99967 12.9999V10.6666M5.66634 10.6666H7.99967" stroke="black" stroke-opacity="0.4" stroke-width="1.2" stroke-linecap="round" stroke-linejoin="round"/>
</g>
<defs>
<clipPath id="clip0_1097_7406">
<rect width="16" height="16" fill="white"/>
</clipPath>
</defs>
</svg>
