<svg width="429" height="424" viewBox="0 0 429 424" fill="none" xmlns="http://www.w3.org/2000/svg" aria-hidden="true">
  <g opacity="0.1">
    <path d="M22.0806 308.311C70.7737 406.733 190.416 450.519 291.565 407.461C293.84 406.45 297.857 404.633 300.087 403.634L300.698 403.357C300.896 403.261 301.072 403.154 301.253 403.058L305.661 400.625C309.582 398.344 315.162 395.624 319.191 393.535C418.252 340.413 457.546 216.206 406.855 115.956C358.983 19.0078 241.717 -25.5686 141.36 14.938C138.531 16.1121 134.457 17.8224 131.707 19.0699C129.46 20.148 125.482 22.0841 123.281 23.151L122.681 23.4446C122.489 23.5462 122.319 23.6591 122.132 23.7607L117.798 26.329C115.636 27.6498 111.216 30.1731 108.976 31.3585C10.7349 84.3793 -28.4403 208.936 22.0806 308.3V308.311ZM30.829 303.953C-16.9192 209.613 21.775 92.344 116.479 45.03C120.734 42.9979 126.11 39.8481 130.264 37.6184C133.416 36.2694 137.371 34.3558 140.579 33.1196C233.569 -4.99919 342.652 35.7444 387.169 125.766C432.195 214.101 400.24 325.392 315.326 376.815C312.983 378.379 309.367 380.355 306.855 381.721C304.653 382.889 300.302 385.373 298.18 386.677L293.845 389.245C293.664 389.347 293.483 389.465 293.302 389.561L292.77 389.815C290.824 390.764 287.281 392.463 285.312 393.428C190.857 437.09 77.0323 397.103 30.8346 303.953H30.829Z" fill="black"/>
    <path d="M45.5873 302.796C73.9945 364.714 140.359 405.18 208.402 402.487C231.086 401.792 253.629 396.558 274.348 387.224L274.62 387.072L281.456 383.32C368.317 344.858 408.826 238.847 367.073 151.03C326.466 63.3385 219.293 25.6035 132.861 68.8006L126.156 72.7804L126.547 72.5795C106.142 82.5644 87.7256 96.5724 72.7131 113.578C27.1379 164.3 15.926 241.35 45.5819 302.79L45.5873 302.796ZM50.6096 300.434C11.6801 218.888 48.5735 118.969 131.227 82.548L131.341 82.4938L131.612 82.3417L138.448 78.59L138.046 78.7963C218.283 42.4187 314.95 78.1556 352.006 158.105C389.888 237.544 355.525 335.03 276.298 373.39L276.004 373.536L275.901 373.602L269.19 377.581L269.576 377.381C188.855 417.613 88.5509 382.294 50.5933 300.439L50.6096 300.434Z" fill="black"/>
    <path d="M73.5588 278.795C95.8686 331.776 150.81 367.741 208.281 367.269C227.452 367.269 246.624 363.474 264.368 356.138L264.596 356.014L269.222 353.494C343.448 323.431 380.581 235.006 347.651 159.77C315.872 84.859 226.437 50.1049 152.52 84.0121L152.276 84.1207L152.151 84.1913L147.612 86.868C132.04 93.7526 114.019 106.186 101.461 119.863C61.6574 161.426 50.1848 226.189 73.5534 278.795H73.5588ZM76.0401 277.72C44.9291 206.909 79.2163 122.415 150.897 93.4757L151.021 93.4214L151.249 93.2965L155.875 90.7772L155.506 90.9618C225.161 61.9792 306.891 95.186 336.455 164.602C366.703 233.72 334.761 316.014 265.872 346.789L265.627 346.903L260.969 349.65L261.327 349.471C191.183 381.7 106.288 348.798 76.0347 277.731L76.0401 277.72Z" fill="black"/>
    <path d="M101.098 255.06C114.688 291.612 147.129 320.144 185.076 329.113C207.923 334.722 232.405 333.343 254.524 325.269L254.687 325.182L257.103 323.885L256.821 324.015C310.492 305.213 344.236 247.562 334.403 191.497C325.39 134.748 275.33 91.4369 217.886 90.8017C201.994 90.5031 186.113 93.4838 171.431 99.3097L171.323 99.3748L168.95 100.743L169.232 100.613C108.672 124.019 77.5227 194.619 101.103 255.06H101.098ZM101.901 254.756C78.7443 194.874 110.268 126.066 170.742 104.603L170.856 104.56L171.019 104.473L173.435 103.181C215.877 87.734 265.861 99.1197 297.45 133.315C353.005 192.909 330.82 290.287 255.008 320.122L252.635 321.49L252.912 321.36C193.508 345.353 124.325 314.806 101.901 254.756Z" fill="black"/>
    <path d="M128.201 231.554C138.528 267.155 171.507 294.319 208.389 297.897C275.27 304.939 328.175 241.37 308.629 176.879C289.099 112.376 209.779 88.8668 158.069 131.852C129.379 155.308 117.027 196.208 128.201 231.554ZM128.201 231.554C117.114 196.317 129.694 155.476 158.72 132.65C209.671 91.5761 286.601 115.135 305.518 177.824C324.586 240.475 273.684 302.778 208.487 296.887C171.67 294.009 138.533 267.025 128.201 231.554Z" fill="black"/>
  </g>
</svg>
