<svg width="15" height="15" viewBox="0 0 15 15" fill="none" xmlns="http://www.w3.org/2000/svg">
<path d="M6.93294 9.26644L4.93294 7.26644M6.93294 9.26644C7.86417 8.91227 8.75753 8.46559 9.59961 7.93311M6.93294 9.26644V12.5999C6.93294 12.5999 8.95294 12.2333 9.59961 11.2666C10.3196 10.1866 9.59961 7.93311 9.59961 7.93311M4.93294 7.26644C5.28771 6.34606 5.73441 5.46382 6.26628 4.63311C7.04306 3.3911 8.12469 2.36847 9.40828 1.6625C10.6919 0.956531 12.1347 0.590689 13.5996 0.599775C13.5996 2.41311 13.0796 5.59977 9.59961 7.93311M4.93294 7.26644L1.59961 7.26661C1.59961 7.26661 1.96628 5.24661 2.93294 4.59995C4.01294 3.87995 6.26628 4.59995 6.26628 4.59995M1.93294 10.2665C0.932943 11.1065 0.599609 13.5998 0.599609 13.5998C0.599609 13.5998 3.09294 13.2665 3.93294 12.2665C4.40628 11.7065 4.39961 10.8465 3.87294 10.3265C3.61381 10.0792 3.27247 9.93625 2.91443 9.92517C2.55638 9.9141 2.20686 10.0356 1.93294 10.2665Z" stroke="black" stroke-width="1.2" stroke-linecap="round" stroke-linejoin="round"/>
</svg>
