<svg preserveAspectRatio="none" width="100%" height="100%" overflow="visible" style="display: block;" viewBox="0 0 41.9335 44.1256" fill="none" xmlns="http://www.w3.org/2000/svg">
<path id="vector" d="M0 1.83906C0.000161966 0.621786 1.15862 -0.239676 2.31716 0.059792C16.2965 3.74978 31.0241 10.9239 41.3591 20.664C42.1249 21.3944 42.125 22.5745 41.3591 23.3049C35.2851 29.0178 27.6778 34.4687 16.0346 39.6197C15.381 39.9001 14.8583 39.3763 14.7833 39.1702C14.7085 38.9641 14.7086 38.57 14.7086 38.57V19.9331C14.7088 19.2591 15.4368 18.8097 16.0533 19.1275L20.8196 21.6377C21.1186 21.7875 21.3052 22.1061 21.3052 22.4433V27.4262C24.8374 25.4782 27.492 23.5298 29.6599 21.9564C29.6599 21.9564 19.5304 14.7824 10.6532 12.1038V40.0878C10.6532 40.8932 10.1294 41.6049 9.36328 41.8484L2.39187 44.0398C1.19585 44.4143 0 43.5154 0 42.2792V1.83906Z" fill="var(--fill-0, #D7FF00)"/>
</svg>
