<svg preserveAspectRatio="none" width="100%" height="100%" overflow="visible" style="display: block;" viewBox="0 0 32.889 34.6083" fill="none" xmlns="http://www.w3.org/2000/svg">
<path id="vector" d="M0 1.4424C0.000127032 0.487675 0.908722 -0.187981 1.81738 0.0468957C12.7816 2.941 24.3326 8.56778 32.4385 16.2071C33.0392 16.78 33.0392 17.7055 32.4385 18.2783C27.6746 22.7591 21.7081 27.0342 12.5762 31.0742C12.0635 31.2942 11.6536 30.8834 11.5947 30.7217C11.5361 30.5601 11.5361 30.251 11.5361 30.251V15.6338C11.5363 15.1052 12.1073 14.7527 12.5908 15.002L16.3291 16.9707C16.5636 17.0882 16.7099 17.3381 16.71 17.6026V21.5108C19.4803 19.9829 21.5624 18.4548 23.2627 17.2207C23.2627 17.2207 15.3179 11.5941 8.35547 9.49319V31.4414C8.35547 32.0731 7.94467 32.6313 7.34375 32.8223L1.87598 34.541C0.937924 34.8347 0 34.1297 0 33.1602V1.4424Z" fill="var(--fill-0, black)"/>
</svg>
