<svg width="142" height="142" viewBox="0 0 142 142" fill="none" xmlns="http://www.w3.org/2000/svg">
<rect width="142" height="142" rx="71" fill="black" fill-opacity="0.05"/>
<rect x="0.5" y="0.5" width="141" height="141" rx="70.5" stroke="black" stroke-opacity="0.15"/>
<rect x="27" y="27" width="88" height="88" rx="44" fill="white"/>
<rect x="27.5" y="27.5" width="87" height="87" rx="43.5" stroke="black" stroke-opacity="0.15"/>
<path d="M25.8625 47.1933L24.9831 46.6145L25.4094 45.5939L19.2024 41.5087L18.4336 42.3039L17.5485 41.7214L19.6907 38.4666L20.5757 39.0491L20.1495 40.0698L22.7419 41.776L25.1359 38.1386L22.5435 36.4324L21.7746 37.2276L20.8895 36.645L21.4871 35.7371L22.4304 34.3039L23.0279 33.3959L23.913 33.9785L23.4868 34.9991L29.6937 39.0843L30.4626 38.2891L31.3419 38.8679L29.2035 42.117L28.3242 41.5382L28.7504 40.5175L26.2551 38.8752L23.8611 42.5126L26.3564 44.1549L27.1253 43.3597L28.0047 43.9385L25.8625 47.1933ZM35.4167 34.9338C34.8872 35.4548 34.3234 35.8208 33.7255 36.0318C33.1244 36.2396 32.5296 36.2751 31.941 36.1381C31.3556 35.998 30.8088 35.6697 30.3006 35.1531L26.5133 31.3034L25.5946 31.9195L24.8515 31.1642L27.6243 28.4363L28.3674 29.1917L27.7364 30.1001L31.5238 33.9498C31.8466 34.2779 32.18 34.4933 32.5239 34.596C32.8647 34.6955 33.2015 34.6902 33.5344 34.5801C33.8672 34.47 34.183 34.268 34.4819 33.9739C34.7905 33.6703 35.0026 33.353 35.1181 33.022C35.2368 32.6878 35.2493 32.3496 35.1554 32.0072C35.0647 31.6617 34.8564 31.3232 34.5304 30.9918L30.7431 27.1421L29.8244 27.7582L29.0813 27.0029L31.8541 24.275L32.5972 25.0303L31.9711 25.934L35.7584 29.7837C36.273 30.3067 36.5939 30.8636 36.7212 31.4544C36.8518 32.042 36.8051 32.6346 36.581 33.2322C36.3538 33.8265 35.9657 34.3937 35.4167 34.9338ZM39.5004 30.8748L38.956 29.9738L39.7743 29.2397L35.9315 22.8798L34.901 23.2629L34.3531 22.356L35.2775 21.7974L37.3897 20.5212L43.6106 25.1726L43.6457 25.1514L42.3453 17.5269L45.417 15.6709L45.965 16.5778L45.1407 17.3154L48.9835 23.6752L50.0199 23.2887L50.5643 24.1897L47.2352 26.2012L46.6907 25.3002L47.5618 24.5343L46.3633 22.5509L44.1231 18.8168L44.0903 18.8286L45.4393 27.0228L44.3686 27.6697L37.6873 22.7454L37.6616 22.769L39.9083 26.3154L41.1668 28.3983L42.2851 27.9622L42.8295 28.8633L39.5004 30.8748ZM50.9505 24.0549L50.6308 23.0519L51.2901 22.7342L51.7583 13.3512L53.354 12.8427L59.1255 20.2373L59.8471 20.115L60.1667 21.118L57.1511 22.079L56.8314 21.076L57.4694 20.7364L56.4926 19.4046L52.9624 20.5296L52.9231 22.1851L53.6465 22.0909L53.9661 23.0939L50.9505 24.0549ZM52.9917 19.1355L55.6686 18.2825L53.3189 15.1641L53.1533 14.9371L53.1142 14.9496L53.1081 15.2457L52.9917 19.1355ZM60.9564 20.967L60.8539 19.9193L61.9157 19.6094L61.1922 12.214L60.0904 12.1158L59.9873 11.0612L61.069 10.9554L62.8039 10.7856L68.0562 17.5731L68.0956 17.5555L67.5126 11.5957L66.2408 11.514L66.1376 10.4595L68.9338 10.1859L70.0156 10.0801L70.1187 11.1346L69.0569 11.4446L69.9029 20.0918L68.2769 20.2508L62.9185 13.5013L62.8783 13.5121L63.4601 19.4583L64.7319 19.5399L64.8344 20.5876L60.9564 20.967ZM75.2646 20.1752L75.4408 19.1373L76.5546 19.1115L77.7949 11.8059L76.7532 11.4071L76.9306 10.3625L78.0089 10.5456L81.0416 11.0605C81.9178 11.2092 82.6487 11.546 83.2345 12.0707C83.8248 12.5962 84.2428 13.2519 84.4884 14.0378C84.734 14.8237 84.7775 15.6839 84.6188 16.6185L84.5857 16.8139C84.4293 17.735 84.1096 18.529 83.6266 19.1958C83.1443 19.8581 82.5397 20.3426 81.8128 20.649C81.0912 20.9518 80.2945 21.0292 79.4229 20.8812L75.2646 20.1752ZM78.2632 19.3392L79.5572 19.5589C80.1323 19.6565 80.648 19.5869 81.1042 19.35C81.5657 19.1094 81.9489 18.7446 82.2539 18.2555C82.5595 17.7619 82.7684 17.1849 82.8806 16.5245L82.9149 16.3223C83.0301 15.6438 83.0241 15.0257 82.8969 14.4679C82.7705 13.9056 82.5284 13.4392 82.1706 13.0688C81.8174 12.6991 81.3532 12.4654 80.7781 12.3678L79.4841 12.1481L78.2632 19.3392ZM84.6498 21.8518L85.0118 20.8633L86.103 21.0446L88.6585 14.0672L87.7084 13.5008L88.0728 12.5059L95.1915 15.1131L94.3098 17.5202L93.0517 17.0594L93.3681 15.8576L90.2549 14.7174L89.2863 17.362L92.5664 18.5634L92.108 19.8151L88.8279 18.6137L87.7394 21.5857L91.0259 22.7894L91.5699 21.6418L92.8152 22.0979L91.9289 24.5179L84.6498 21.8518ZM96.2776 27.0434C95.6891 26.7047 95.184 26.3168 94.7625 25.8797C94.341 25.4426 93.9891 24.9167 93.7066 24.302L94.8488 22.3171L96.0041 22.982L95.4539 24.3768C95.5768 24.6474 95.7643 24.9156 96.0161 25.1815C96.272 25.4496 96.5796 25.6871 96.939 25.8939C97.2906 26.0962 97.6133 26.2162 97.9071 26.2538C98.2071 26.2898 98.4727 26.2533 98.7036 26.1443C98.9346 26.0353 99.1216 25.8564 99.2648 25.6076C99.3967 25.3785 99.4584 25.1433 99.4501 24.9019C99.4418 24.6605 99.3491 24.3968 99.1719 24.1108C98.9969 23.8208 98.7244 23.4905 98.3541 23.1197C97.8103 22.5754 97.3893 22.0597 97.0912 21.5727C96.797 21.0879 96.6348 20.616 96.6045 20.1569C96.5782 19.7001 96.6946 19.2465 96.9537 18.7962C97.2197 18.3341 97.5793 17.9969 98.0328 17.7846C98.4901 17.5745 99.0011 17.4952 99.5656 17.5467C100.13 17.5981 100.706 17.7901 101.293 18.1226C101.937 18.4829 102.454 18.8909 102.844 19.3465C103.238 19.8044 103.524 20.2714 103.702 20.7473L102.635 22.6018L101.503 21.9506L101.986 20.6192C101.89 20.4114 101.734 20.193 101.519 19.964C101.31 19.7333 101.029 19.5168 100.678 19.3145C100.378 19.1418 100.085 19.0389 99.7986 19.0058C99.5127 18.9727 99.2523 19.0095 99.0174 19.1162C98.7848 19.2189 98.5968 19.3947 98.4536 19.6436C98.3286 19.8608 98.2768 20.0834 98.2981 20.3112C98.3195 20.5391 98.4258 20.7975 98.6172 21.0863C98.8107 21.3713 99.098 21.7127 99.4789 22.1107C100.272 22.8982 100.783 23.6499 101.013 24.3656C101.242 25.0814 101.162 25.779 100.771 26.4584C100.496 26.9363 100.124 27.28 99.6568 27.4894C99.1955 27.6972 98.673 27.7646 98.0893 27.6916C97.5095 27.6208 96.9056 27.4048 96.2776 27.0434ZM100.248 29.2294L100.886 28.3921L101.875 28.8877L106.378 22.9773L105.638 22.1554L106.28 21.3126L109.374 23.67L108.732 24.5128L107.749 24.0213L103.245 29.9318L103.98 30.7495L103.342 31.5868L100.248 29.2294ZM107.145 35.5273C106.47 34.8486 106.038 34.1191 105.846 33.3387C105.659 32.5551 105.696 31.7721 105.959 30.9898C106.226 30.2043 106.705 29.4677 107.397 28.7801L107.586 28.5921C108.293 27.8884 109.042 27.4007 109.833 27.1291C110.629 26.8574 111.411 26.8065 112.178 26.9763C112.947 27.1428 113.642 27.538 114.262 28.1617C114.783 28.6852 115.184 29.2245 115.466 29.7796C115.751 30.3315 115.921 30.883 115.974 31.4342L114.466 32.9332L113.536 31.9976L114.361 30.8689C114.326 30.6206 114.23 30.3561 114.073 30.0753C113.916 29.7945 113.693 29.5087 113.404 29.2178C113.008 28.8203 112.55 28.5789 112.028 28.4936C111.513 28.4084 110.976 28.4761 110.418 28.6969C109.866 28.9177 109.33 29.2867 108.81 29.804L108.611 30.0017C108.097 30.5126 107.729 31.0368 107.505 31.5743C107.284 32.115 107.221 32.6434 107.316 33.1592C107.415 33.6783 107.684 34.1593 108.124 34.602C108.404 34.8832 108.676 35.1047 108.939 35.2666C109.206 35.4317 109.454 35.5516 109.683 35.6264L111.074 34.2431L109.995 33.0219L110.862 32.1591L113.224 34.5344L110.422 37.3203C109.945 37.261 109.427 37.0951 108.867 36.8228C108.31 36.5538 107.736 36.1219 107.145 35.5273ZM110.512 38.8389L111.391 38.2595L112.161 39.054L118.365 34.9642L117.937 33.9438L118.822 33.3606L119.42 34.2681L120.38 35.7235L116.826 43.5355L116.86 43.5622L121.86 40.2663L121.339 39.1032L122.223 38.52L123.77 40.8658L124.368 41.7732L123.483 42.3564L122.714 41.5618L115.46 46.344L114.561 44.9799L118.031 37.0916L118.003 37.0611L113.015 40.3496L113.536 41.5126L112.657 42.0921L110.512 38.8389Z" fill="black" fill-opacity="0.4"/>
<path d="M10.8304 81.0596L11.8484 80.7915L12.3235 81.7904L19.5092 79.8982L19.4307 78.7949L20.4554 78.5251L20.7322 79.5761L21.176 81.2618L15.3118 87.5281L15.3355 87.5643L21.1264 86.0394L21.0044 84.7708L22.029 84.501L22.7445 87.218L23.0213 88.2691L21.9966 88.5389L21.5215 87.54L13.1195 89.7525L12.7034 88.1726L18.5134 81.8075L18.4963 81.7696L12.7186 83.291L12.8406 84.5596L11.8226 84.8276L10.8304 81.0596ZM15.7172 96.6569C15.4329 96.0604 15.2871 95.4685 15.2798 94.8813C15.2766 94.2922 15.3963 93.7277 15.6389 93.188C15.8834 92.6525 16.2392 92.1597 16.7063 91.7099C17.1735 91.2601 17.7382 90.8773 18.4005 90.5616L18.5363 90.4969C19.1945 90.1831 19.8454 89.9864 20.489 89.9068C21.1326 89.8272 21.7394 89.8611 22.3095 90.0084C22.8856 90.1579 23.3994 90.4203 23.851 90.7958C24.3067 91.1692 24.6757 91.6522 24.9581 92.2446C25.2502 92.8575 25.3989 93.4607 25.404 94.0539C25.4133 94.6453 25.2936 95.2097 25.0449 95.7472C24.8004 96.2828 24.4436 96.7735 23.9745 97.2192C23.5054 97.6649 22.9418 98.0447 22.2836 98.3584L22.1478 98.4231C21.4855 98.7388 20.8335 98.9385 20.1918 99.0223C19.5502 99.106 18.9444 99.0742 18.3743 98.9269C17.8043 98.7795 17.2905 98.5171 16.8328 98.1395C16.3793 97.76 16.0074 97.2658 15.7172 96.6569ZM16.9513 96.0686C17.2102 96.6117 17.5608 96.9923 18.0031 97.2106C18.4514 97.4311 18.9647 97.507 19.5429 97.4384C20.123 97.3739 20.7443 97.1838 21.4066 96.8681L21.5547 96.7975C22.2088 96.4857 22.7415 96.1258 23.1528 95.7177C23.5641 95.3096 23.8253 94.862 23.9364 94.3749C24.0495 93.8918 23.9766 93.3788 23.7177 92.8358C23.4707 92.3174 23.1239 91.9501 22.6775 91.7338C22.2311 91.5174 21.7189 91.4385 21.1409 91.4969C20.5629 91.5553 19.9469 91.7404 19.2928 92.0522L19.1447 92.1228C18.4865 92.4365 17.9486 92.8015 17.531 93.2176C17.1175 93.6317 16.8543 94.0803 16.7412 94.5634C16.6342 95.0485 16.7043 95.5503 16.9513 96.0686ZM19.9462 104.066L20.8041 103.456L21.6011 104.223L27.6121 99.9484L26.4513 98.3161L25.328 98.9305L24.5792 97.8776L26.6906 96.3761L31.6863 103.401L29.5749 104.902L28.8222 103.844L29.7712 102.985L28.6105 101.352L22.5995 105.627L23.0622 106.632L22.2043 107.242L19.9462 104.066ZM29.7227 115.647L30.4033 114.844L31.3651 115.39L36.1339 109.763L34.6059 108.468L33.6691 109.341L32.6835 108.506L34.3585 106.529L40.9347 112.103L39.2596 114.079L38.2688 113.239L38.9761 112.172L37.4481 110.877L32.6793 116.504L33.3759 117.363L32.6953 118.166L29.7227 115.647ZM36.0855 120.941L36.623 120.036L37.6623 120.415L41.4565 114.026L40.6267 113.294L41.1677 112.383L47.686 116.254L46.377 118.459L45.225 117.774L45.7569 116.651L42.9062 114.958L41.4681 117.38L44.4716 119.163L43.7909 120.31L40.7875 118.526L39.1714 121.247L42.1807 123.034L42.9264 122.006L44.0666 122.684L42.7507 124.899L36.0855 120.941ZM48.3028 127.547C47.6705 127.3 47.1133 126.991 46.6315 126.622C46.1497 126.252 45.7234 125.785 45.3526 125.219L46.1868 123.086L47.4282 123.572L47.0916 125.033C47.2534 125.282 47.4787 125.519 47.7673 125.745C48.0602 125.972 48.3997 126.161 48.7859 126.312C49.1636 126.46 49.5006 126.53 49.7967 126.524C50.0988 126.515 50.3559 126.439 50.5681 126.297C50.7803 126.155 50.9387 125.95 51.0432 125.683C51.1395 125.437 51.1656 125.195 51.1215 124.957C51.0773 124.72 50.9464 124.473 50.7286 124.217C50.5125 123.956 50.1938 123.67 49.7725 123.358C49.1537 122.901 48.6607 122.453 48.2935 122.016C47.9304 121.581 47.6998 121.138 47.6016 120.689C47.5076 120.241 47.5552 119.775 47.7445 119.291C47.9387 118.795 48.2442 118.408 48.661 118.13C49.082 117.854 49.5755 117.7 50.1414 117.667C50.7073 117.634 51.3052 117.738 51.935 117.979C52.6259 118.24 53.1979 118.566 53.6512 118.959C54.1087 119.353 54.461 119.772 54.7081 120.216L53.9287 122.209L52.7127 121.734L52.9915 120.345C52.8657 120.154 52.6793 119.961 52.4324 119.767C52.1913 119.57 51.882 119.397 51.5042 119.25C51.1817 119.123 50.8766 119.065 50.5889 119.075C50.3012 119.085 50.0492 119.16 49.8328 119.3C49.618 119.437 49.4583 119.638 49.3538 119.906C49.2625 120.139 49.2443 120.367 49.2993 120.589C49.3544 120.811 49.4979 121.051 49.7301 121.308C49.9639 121.561 50.2988 121.856 50.7347 122.193C51.636 122.854 52.2534 123.521 52.5869 124.195C52.9204 124.868 52.9444 125.57 52.6589 126.3C52.458 126.814 52.142 127.209 51.7108 127.485C51.2855 127.759 50.7789 127.904 50.1908 127.918C49.607 127.935 48.9777 127.811 48.3028 127.547ZM55.9592 129.885L56.1744 128.854L57.2803 128.876L58.7881 121.656L56.8274 121.246L56.4203 122.46L55.1556 122.196L55.6852 119.66L64.1233 121.422L63.5937 123.958L62.3223 123.693L62.435 122.417L60.4743 122.008L58.9665 129.228L59.9886 129.651L59.7734 130.682L55.9592 129.885ZM64.0765 131.503L64.1166 130.451L65.2105 130.288L65.4938 122.862L64.4155 122.616L64.4559 121.557L72.0314 121.846L71.9337 124.408L70.5948 124.357L70.5259 123.116L67.2129 122.99L67.1055 125.804L70.5961 125.937L70.5453 127.269L67.0547 127.136L66.934 130.299L70.4315 130.432L70.5958 129.173L71.921 129.223L71.8228 131.799L64.0765 131.503ZM74.1148 131.81L73.9764 130.766L75.0328 130.412L74.0587 123.066L72.9457 122.993L72.8064 121.943L73.8906 121.799L76.9401 121.395C77.8211 121.278 78.6189 121.384 79.3336 121.712C80.0528 122.039 80.6459 122.542 81.1128 123.221C81.5797 123.899 81.8755 124.708 82.0001 125.647L82.0262 125.844C82.149 126.77 82.0782 127.623 81.8138 128.403C81.5489 129.178 81.1144 129.82 80.5106 130.327C79.9106 130.83 79.1724 131.139 78.296 131.255L74.1148 131.81ZM76.7324 130.125L78.0335 129.952C78.6118 129.876 79.0839 129.657 79.4497 129.296C79.8195 128.929 80.0778 128.468 80.2245 127.91C80.3707 127.348 80.3997 126.735 80.3117 126.071L80.2847 125.868C80.1943 125.186 80.0058 124.597 79.7195 124.102C79.4326 123.602 79.0635 123.228 78.6122 122.98C78.1655 122.731 77.653 122.645 77.0747 122.722L75.7736 122.894L76.7324 130.125ZM93.1761 127.647C92.5634 127.894 91.9638 128.004 91.3772 127.975C90.7889 127.942 90.2328 127.789 89.7089 127.514C89.1892 127.237 88.7191 126.852 88.2986 126.358C87.878 125.864 87.5304 125.277 87.2556 124.597L87.1993 124.458C86.9262 123.781 86.7696 123.12 86.7294 122.473C86.6891 121.825 86.7599 121.222 86.9417 120.662C87.126 120.096 87.4192 119.599 87.8215 119.171C88.222 118.739 88.7265 118.4 89.335 118.154C89.9647 117.9 90.5757 117.788 91.1682 117.819C91.759 117.846 92.3151 118 92.8365 118.281C93.3562 118.558 93.8242 118.944 94.2405 119.439C94.6568 119.934 95.0015 120.52 95.2746 121.196L95.3309 121.336C95.6057 122.016 95.7653 122.679 95.8097 123.325C95.8542 123.97 95.7855 124.573 95.6038 125.133C95.422 125.693 95.1287 126.19 94.7239 126.624C94.3175 127.053 93.8015 127.394 93.1761 127.647ZM92.6642 126.379C93.2219 126.154 93.6233 125.827 93.8681 125.399C94.1155 124.965 94.2225 124.457 94.1893 123.876C94.1602 123.293 94.0083 122.661 93.7336 121.981L93.6721 121.829C93.4008 121.157 93.074 120.603 92.6917 120.168C92.3094 119.732 91.8786 119.444 91.3991 119.304C90.9239 119.161 90.4074 119.203 89.8496 119.428C89.3171 119.643 88.9294 119.967 88.6862 120.399C88.4431 120.832 88.3331 121.338 88.3562 121.919C88.3792 122.499 88.5265 123.125 88.7978 123.797L88.8593 123.949C89.1323 124.625 89.4638 125.185 89.8537 125.627C90.2419 126.065 90.6736 126.355 91.1489 126.497C91.6266 126.633 92.1317 126.594 92.6642 126.379ZM98.9881 125.053L98.4197 124.167L99.2238 123.408L95.2119 117.153L94.1863 117.567L93.6142 116.675L94.5291 116.089L95.9964 115.147L103.763 118.798L103.79 118.765L100.557 113.724L99.3879 114.231L98.8158 113.339L101.181 111.822L102.096 111.235L102.668 112.127L101.863 112.886L106.554 120.2L105.179 121.082L97.335 117.513L97.3042 117.541L100.53 122.57L101.699 122.063L102.268 122.949L98.9881 125.053ZM112.529 115.508L111.759 114.791L112.35 113.856L106.914 108.79L106.023 109.445L105.247 108.723L105.988 107.928L107.163 106.668L107.96 105.812L108.735 106.535L108.088 107.53L113.479 112.554L115.6 110.278L114.579 109.168L115.478 108.202L117.544 110.127L112.529 115.508ZM118.843 108.632L117.973 108.039L118.416 107.026L112.275 102.842L111.493 103.625L110.618 103.028L111.23 102.13L112.199 100.706L112.858 99.7403L113.733 100.337L113.245 101.418L119.335 105.567L121.086 102.997L119.908 102.054L120.651 100.964L122.985 102.553L118.843 108.632ZM124.039 100.832L123.068 100.424L123.298 99.3491L116.448 96.4686L115.84 97.3848L114.864 96.974L115.282 95.9784L116.239 93.7036L124.006 93.8032L124.022 93.7654L118.483 88.3663L119.875 85.058L120.851 85.4688L120.619 86.5502L127.469 89.4307L128.079 88.5082L129.05 88.9163L127.542 92.5018L126.571 92.0937L126.825 90.9619L124.689 90.0636L120.68 88.363L120.66 88.3918L126.573 94.2229L126.088 95.376L117.789 95.3267L117.782 95.3608L121.685 96.906L123.928 97.8494L124.576 96.8387L125.546 97.2468L124.039 100.832ZM130.559 84.0405C130.445 84.5567 130.29 85.0287 130.092 85.4565C129.892 85.8789 129.644 86.2931 129.349 86.6993L127.435 86.2974L127.702 85.0892L128.8 85.0657C128.926 84.8931 129.036 84.712 129.13 84.5226C129.219 84.3277 129.292 84.1057 129.347 83.8565C129.453 83.3759 129.443 83.0191 129.317 82.7859C129.193 82.5483 129.006 82.4019 128.756 82.3468C128.516 82.2937 128.288 82.3531 128.073 82.5248C127.854 82.6912 127.618 83.052 127.365 83.6074C126.987 84.4294 126.575 85.0058 126.128 85.3365C125.678 85.6617 125.166 85.761 124.592 85.6341C124.196 85.5465 123.861 85.3628 123.587 85.0828C123.314 84.7984 123.127 84.4304 123.026 83.9787C122.922 83.5216 122.936 82.9927 123.069 82.3919C123.19 81.8446 123.355 81.3723 123.564 80.9752C123.77 80.5726 123.999 80.2429 124.252 79.986L126.096 80.3517L125.832 81.5465L124.832 81.5424C124.703 81.6587 124.592 81.8022 124.499 81.9728C124.405 82.1435 124.332 82.3467 124.28 82.5826C124.198 82.9519 124.216 83.2616 124.333 83.5116C124.446 83.7606 124.625 83.9121 124.87 83.9662C125.012 83.9977 125.149 83.9928 125.279 83.9517C125.411 83.906 125.547 83.7961 125.688 83.622C125.826 83.4424 125.982 83.1711 126.155 82.8081C126.581 81.9173 127.014 81.3083 127.455 80.9811C127.896 80.6538 128.406 80.5541 128.984 80.682C129.63 80.8246 130.107 81.1775 130.417 81.7406C130.726 82.3038 130.774 83.0704 130.559 84.0405Z" fill="black" fill-opacity="0.4"/>
</svg>
