<svg width="16" height="16" viewBox="0 0 16 16" fill="none" xmlns="http://www.w3.org/2000/svg">
<path d="M5.99967 11.3334H4.66634C3.78229 11.3334 2.93444 10.9822 2.30932 10.3571C1.6842 9.73198 1.33301 8.88414 1.33301 8.00008C1.33301 7.11603 1.6842 6.26818 2.30932 5.64306C2.93444 5.01794 3.78229 4.66675 4.66634 4.66675H5.99967M9.99967 4.66675H11.333C12.2171 4.66675 13.0649 5.01794 13.69 5.64306C14.3152 6.26818 14.6663 7.11603 14.6663 8.00008C14.6663 8.88414 14.3152 9.73198 13.69 10.3571C13.0649 10.9822 12.2171 11.3334 11.333 11.3334H9.99967M5.33301 8.00008H10.6663" stroke="#2B00FF" stroke-linecap="round" stroke-linejoin="round"/>
</svg>
