<svg width="16" height="16" viewBox="0 0 16 16" fill="none" xmlns="http://www.w3.org/2000/svg">
<path d="M10.6663 5.3335C11.7272 5.3335 12.7446 5.75492 13.4948 6.50507C14.2449 7.25521 14.6663 8.27263 14.6663 9.3335V14.0002H11.9997V9.3335C11.9997 8.97987 11.8592 8.64074 11.6091 8.39069C11.3591 8.14064 11.02 8.00016 10.6663 8.00016C10.3127 8.00016 9.97358 8.14064 9.72353 8.39069C9.47348 8.64074 9.33301 8.97987 9.33301 9.3335V14.0002H6.66634V9.3335C6.66634 8.27263 7.08777 7.25521 7.83791 6.50507C8.58806 5.75492 9.60547 5.3335 10.6663 5.3335Z" stroke="black" stroke-linecap="round" stroke-linejoin="round"/>
<path d="M3.99967 6.00016H1.33301V14.0002H3.99967V6.00016Z" stroke="black" stroke-linecap="round" stroke-linejoin="round"/>
<path d="M2.66634 4.00016C3.40272 4.00016 3.99967 3.40321 3.99967 2.66683C3.99967 1.93045 3.40272 1.3335 2.66634 1.3335C1.92996 1.3335 1.33301 1.93045 1.33301 2.66683C1.33301 3.40321 1.92996 4.00016 2.66634 4.00016Z" stroke="black" stroke-linecap="round" stroke-linejoin="round"/>
</svg>
