<svg width="60" height="20" viewBox="0 0 60 20" fill="none" xmlns="http://www.w3.org/2000/svg">
<path d="M35.4368 10.0001C35.4368 12.0487 33.7724 13.7094 31.7194 13.7094C29.6663 13.7094 28.0019 12.0487 28.0019 10.0001C28.0019 7.95144 29.6663 6.2907 31.7194 6.2907C33.7724 6.2907 35.4368 7.95144 35.4368 10.0001Z" fill="black"/>
<path d="M14.0521 0.000173062C13.2515 0.000924883 12.4605 0.173182 11.7324 0.5053C11.0043 0.837417 10.3562 1.32165 9.83178 1.92526C9.31433 1.32231 8.67237 0.838103 7.94987 0.505827C7.22738 0.173552 6.44143 0.00106032 5.64589 0.000173062C4.89727 0.00287172 4.15661 0.153566 3.4667 0.44355C2.77678 0.733534 2.1513 1.15706 1.62637 1.68965C1.10145 2.22225 0.687492 2.85336 0.408423 3.54652C0.129355 4.23968 -0.0092955 4.98114 0.00048349 5.72808V18.4706C0.0098251 18.8606 0.171616 19.2314 0.451287 19.5038C0.730958 19.7763 1.10633 19.9288 1.4972 19.9288C1.88807 19.9288 2.26345 19.7763 2.54312 19.5038C2.82279 19.2314 2.98458 18.8606 2.99392 18.4706V5.72808C2.98936 5.36095 3.05788 4.99657 3.19552 4.65607C3.33316 4.31557 3.53718 4.00572 3.79575 3.7445C4.05431 3.48328 4.36228 3.27587 4.70178 3.13431C5.04129 2.99276 5.40558 2.91987 5.77354 2.91987C6.14149 2.91987 6.50579 2.99276 6.84529 3.13431C7.1848 3.27587 7.49277 3.48328 7.75133 3.7445C8.00989 4.00572 8.21391 4.31557 8.35155 4.65607C8.48919 4.99657 8.55772 5.36095 8.55316 5.72808V18.4706C8.54381 18.6585 8.57283 18.8464 8.63846 19.0228C8.70408 19.1991 8.80495 19.3604 8.93492 19.4966C9.0649 19.6329 9.22127 19.7414 9.39456 19.8156C9.56784 19.8897 9.75442 19.928 9.94297 19.928C10.1315 19.928 10.3181 19.8897 10.4914 19.8156C10.6647 19.7414 10.821 19.6329 10.951 19.4966C11.081 19.3604 11.1818 19.1991 11.2475 19.0228C11.3131 18.8464 11.3421 18.6585 11.3328 18.4706V5.72808C11.3282 5.36095 11.3967 4.99657 11.5344 4.65607C11.672 4.31557 11.876 4.00572 12.1346 3.7445C12.3932 3.48328 12.7011 3.27587 13.0406 3.13431C13.3801 2.99276 13.7444 2.91987 14.1124 2.91987C14.4803 2.91987 14.8446 2.99276 15.1841 3.13431C15.5237 3.27587 15.8316 3.48328 16.0902 3.7445C16.3487 4.00572 16.5528 4.31557 16.6904 4.65607C16.8281 4.99657 16.8966 5.36095 16.892 5.72808V18.4706C16.8827 18.6585 16.9117 18.8464 16.9773 19.0228C17.0429 19.1991 17.1438 19.3604 17.2738 19.4966C17.4038 19.6329 17.5601 19.7414 17.7334 19.8156C17.9067 19.8897 18.0933 19.928 18.2818 19.928C18.4704 19.928 18.6569 19.8897 18.8302 19.8156C19.0035 19.7414 19.1599 19.6329 19.2899 19.4966C19.4198 19.3604 19.5207 19.1991 19.5863 19.0228C19.652 18.8464 19.681 18.6585 19.6716 18.4706V5.72808C19.6716 2.56959 17.2174 0.000173062 14.0521 0.000173062Z" fill="black"/>
<path d="M38.9675 4.98838C39.2412 4.71527 39.395 4.34486 39.395 3.95863C39.395 3.57241 39.2412 3.202 38.9675 2.92888C37.5671 1.53145 35.783 0.57942 33.8407 0.193012C31.8983 -0.193396 29.8848 0.00314248 28.0543 0.757811C26.2239 1.51248 24.6585 2.79144 23.556 4.43319C22.4535 6.07493 21.8632 8.00585 21.8596 9.98213C21.8561 11.9584 22.4395 13.8914 23.5362 15.537C24.6329 17.1827 26.1937 18.4672 28.0214 19.2284C29.8492 19.9895 31.862 20.1932 33.8057 19.8137C35.7494 19.4342 37.5369 18.4885 38.9423 17.096C39.2131 16.823 39.3648 16.4544 39.3645 16.0703C39.3642 15.6863 39.2118 15.3179 38.9406 15.0453C38.6694 14.7728 38.3013 14.6182 37.9164 14.6152C37.5316 14.6122 37.1611 14.761 36.8856 15.0292C35.8895 16.0161 34.6227 16.6863 33.2452 16.9552C31.8676 17.2241 30.4411 17.0798 29.1457 16.5403C27.8504 16.0008 26.7442 15.0904 25.967 13.9241C25.1898 12.7578 24.7763 11.3879 24.7788 9.98724C24.7813 8.58661 25.1997 7.21814 25.9811 6.0546C26.7625 4.89106 27.8719 3.98464 29.1691 3.44979C30.4664 2.91493 31.8935 2.77563 33.27 3.04947C34.6466 3.32331 35.911 3.99801 36.9036 4.98838C37.1773 5.26142 37.5485 5.41481 37.9355 5.41481C38.3226 5.41481 38.6938 5.26142 38.9675 4.98838Z" fill="black"/>
<path d="M49.9782 0.000173062C48.3302 0.000131322 46.7075 0.405669 45.254 1.18086C43.8005 1.95606 42.561 3.07698 41.6454 4.44433C40.7298 5.81169 40.1662 7.38327 40.0047 9.01987C39.8431 10.6565 40.0886 12.3076 40.7193 13.8269C41.35 15.3462 42.3464 16.6869 43.6204 17.7302C44.8944 18.7734 46.4066 19.4871 48.0231 19.8079C49.6395 20.1287 51.3102 20.0467 52.8873 19.5693C54.4645 19.0919 55.8992 18.2337 57.0646 17.0708C57.2001 16.9356 57.3076 16.7751 57.3809 16.5984C57.4543 16.4217 57.492 16.2324 57.4921 16.0411C57.4921 15.8499 57.4543 15.6606 57.381 15.4839C57.3077 15.3072 57.2002 15.1467 57.0647 15.0114C56.9292 14.8762 56.7683 14.7689 56.5912 14.6957C56.4142 14.6225 56.2244 14.5849 56.0328 14.5849C55.8411 14.5848 55.6513 14.6225 55.4743 14.6957C55.2972 14.7689 55.1363 14.8761 55.0008 15.0113C54.341 15.6669 53.5572 16.185 52.695 16.5357C51.8328 16.8863 50.9093 17.0624 49.9782 17.0538C48.3459 17.0424 46.7665 16.4745 45.5021 15.4443C44.2377 14.414 43.3644 12.9833 43.0271 11.3896H58.5405C58.7304 11.3934 58.9192 11.3594 59.0957 11.2896C59.2723 11.2198 59.4332 11.1157 59.5691 10.9832C59.7049 10.8508 59.813 10.6927 59.887 10.5181C59.961 10.3436 59.9994 10.1561 60 9.96657C59.9979 8.65555 59.737 7.3578 59.2321 6.14741C58.7273 4.93702 57.9885 3.8377 57.0579 2.91223C56.1273 1.98675 55.0232 1.25325 53.8085 0.753596C52.5938 0.253944 51.2921 -0.00207025 49.9782 0.000173062ZM49.9782 2.98499C51.6075 2.98926 53.186 3.55047 54.4509 4.5751C55.7158 5.59974 56.5906 7.02592 56.9296 8.61604H43.0273C43.3662 7.02594 44.241 5.59976 45.5059 4.57512C46.7707 3.55048 48.349 2.98927 49.9782 2.98499Z" fill="black"/>
</svg>
