<svg width="16" height="16" viewBox="0 0 16 16" fill="none" xmlns="http://www.w3.org/2000/svg">
<g clip-path="url(#clip0_1096_8916)">
<path d="M6.66642 6.66634V5.99967C6.66642 5.64605 6.8069 5.30691 7.05695 5.05687C7.307 4.80682 7.64613 4.66634 7.99976 4.66634C8.35338 4.66634 8.69252 4.80682 8.94256 5.05687C9.19261 5.30691 9.33309 5.64605 9.33309 5.99967V6.66634C9.33309 6.31272 9.47357 5.97358 9.72361 5.72353C9.97366 5.47348 10.3128 5.33301 10.6664 5.33301C11.02 5.33301 11.3592 5.47348 11.6092 5.72353C11.8593 5.97358 11.9998 6.31272 11.9998 6.66634V7.33301C11.9998 6.97939 12.1402 6.64025 12.3903 6.3902C12.6403 6.14015 12.9795 5.99967 13.3331 5.99967C13.6867 5.99967 14.0258 6.14015 14.2759 6.3902C14.5259 6.64025 14.6664 6.97939 14.6664 7.33301L14.6664 9.33301C14.6664 10.7475 14.1045 12.104 13.1043 13.1042C12.1041 14.1044 10.7476 14.6663 9.33309 14.6663H7.99974C6.13308 14.6663 4.99974 14.093 4.00641 13.1063L1.60641 10.7063C1.37703 10.4523 1.25413 10.1198 1.26316 9.77763C1.27218 9.43548 1.41244 9.10991 1.65489 8.86831C1.89734 8.62672 2.22341 8.48762 2.56559 8.47981C2.90777 8.47199 3.23985 8.59607 3.49308 8.82634L4.66641 9.99967M6.66642 6.33301V2.66634C6.66642 2.31272 6.52595 1.97358 6.2759 1.72353C6.02585 1.47348 5.68671 1.33301 5.33309 1.33301C4.97947 1.33301 4.64033 1.47348 4.39028 1.72353C4.14023 1.97358 3.99976 2.31272 3.99976 2.66634V9.33301" stroke="black" stroke-opacity="0.5" stroke-linecap="round" stroke-linejoin="round"/>
</g>
<defs>
<clipPath id="clip0_1096_8916">
<rect width="16" height="16" fill="white"/>
</clipPath>
</defs>
</svg>
