<svg width="77" height="83" viewBox="0 0 77 83" fill="none" xmlns="http://www.w3.org/2000/svg">
<path d="M47.7683 7.33008L49.8441 11.3542C63.5619 16.2787 72.9926 29.5184 72.9926 44.1924C72.9926 63.4284 57.3464 79.0745 38.1105 79.0745C18.8745 79.0745 3.22832 63.4284 3.22832 44.1924C3.22832 29.5184 12.659 16.2747 26.3768 11.3542L28.4526 7.33008C9.78242 12.2148 -2.83969 30.7097 0.550906 50.6987C3.4116 67.5481 17.5119 80.5766 34.5326 82.1384C57.1472 84.2102 76.2198 66.3887 76.2198 44.1924C76.2198 26.8171 64.3906 11.6809 47.7683 7.33008Z" fill="black"/>
<mask id="mask0_656_7816" style="mask-type:luminance" maskUnits="userSpaceOnUse" x="5" y="11" width="66" height="66">
<path d="M38.1117 76.6203C56.1377 76.6203 70.7507 62.0073 70.7507 43.9813C70.7507 25.9553 56.1377 11.3423 38.1117 11.3423C20.0856 11.3423 5.47266 25.9553 5.47266 43.9813C5.47266 62.0073 20.0856 76.6203 38.1117 76.6203Z" fill="white"/>
</mask>
<g mask="url(#mask0_656_7816)">
<path d="M60.5859 68.0342C60.1556 68.5083 59.6775 68.9585 59.1436 69.3809C57.769 70.4646 56 71.4049 53.9959 71.4049C52.1552 71.4049 52.458 70.0223 52.7688 69.1418C52.7927 69.0781 52.717 69.0302 52.6731 69.0781C51.5257 70.3411 48.7805 72.7595 45.1349 72.7595C41.4893 72.7595 39.1904 70.851 38.1426 69.5362C38.1147 69.5004 38.0669 69.5004 38.039 69.5362C36.9951 70.851 34.7918 72.7595 31.0466 72.7595C27.3014 72.7595 24.6638 70.353 23.5124 69.086C23.4646 69.0342 23.3889 69.086 23.4128 69.1498C23.7236 70.0303 24.0224 71.4049 22.1817 71.4049C20.1776 71.4049 18.4126 70.4646 17.034 69.3809C16.5001 68.9585 16.022 68.5083 15.5917 68.0342H12.5039V84.0987H65.1797V68.0342H60.5739H60.5859Z" fill="black"/>
</g>
<path d="M70.6328 43.8935C70.0869 46.9973 66.4294 56.161 61.9949 56.161C60.1701 56.161 59.704 53.6031 59.3932 51.5592C59.3813 51.4915 59.2976 51.4835 59.2777 51.5473C58.2139 54.9578 52.5602 61.7549 48.3409 61.7549C43.7829 61.7549 41.2569 56.1849 39.8265 51.0692C39.1572 48.1527 40.213 44.0967 40.213 44.0967H40.5915C40.7031 44.0967 40.7987 44.029 40.8385 43.9254L42.5079 39.3515C43.5837 40.5268 44.3088 41.993 44.5718 43.5867L45.3726 48.4714C45.4204 48.7623 45.8428 48.7663 45.8906 48.4714L47.3767 39.5108C47.4524 39.0646 47.3887 38.6064 47.1934 38.2L43.1414 29.61L45.3049 14.41C45.3846 13.8363 45.289 13.2546 45.022 12.7406L38.6034 0.301807C38.3962 -0.100602 37.8225 -0.100602 37.6113 0.301807L31.2006 12.7367C30.9377 13.2506 30.8381 13.8323 30.9178 14.4061L33.0812 29.606L29.0292 38.196C28.838 38.6064 28.7742 39.0606 28.8459 39.5069L30.3321 48.4635C30.3799 48.7583 30.8022 48.7583 30.85 48.4635L31.6509 43.5827C31.9098 41.989 32.635 40.5228 33.7147 39.3475L35.3841 43.9214C35.4239 44.025 35.5196 44.0927 35.6311 44.0927H36.0096C36.0096 44.0927 37.0615 48.1288 36.4001 51.0453C34.9737 56.169 32.4437 61.7509 27.8818 61.7509C23.6784 61.7509 18.0486 54.9976 16.9569 51.5752C16.933 51.5034 16.8374 51.5114 16.8255 51.5871C16.5147 53.6231 16.0445 56.1531 14.2277 56.1531C9.79325 56.1531 6.1357 46.9893 5.58986 43.8856C5.59783 43.8816 5.57791 43.8935 5.58986 43.8856C5.55799 47.4674 6.1118 50.9138 7.15567 54.141C7.9844 56.7109 9.24342 59.1413 10.9806 61.2091C12.7775 63.3446 15.164 65.2969 17.8932 65.2969C20.3117 65.2969 19.8216 62.6315 19.4152 61.0497C19.3993 60.982 19.483 60.9382 19.5228 60.9979C20.9452 63.261 24.4672 67.7433 29.1647 67.7433C33.8621 67.7433 36.7427 64.269 38.0655 61.8944C38.0894 61.8466 38.1492 61.8466 38.1731 61.8944C39.4959 64.269 42.3008 67.7433 47.0739 67.7433C51.847 67.7433 55.6759 62.755 56.9309 60.6473C56.5285 62.1255 55.7078 65.2969 58.3454 65.2969C60.9829 65.2969 63.4611 63.3486 65.258 61.2091C66.9952 59.1413 68.2542 56.7109 69.0829 54.141C70.1228 50.9138 70.6766 47.4674 70.6487 43.8856C70.6567 43.8895 70.6368 43.8776 70.6487 43.8856L70.6328 43.8935ZM36.9858 38.2399C36.9858 38.3355 36.8463 38.3435 36.8344 38.2518L33.4159 14.2347C33.3561 13.8084 33.4278 13.3702 33.627 12.9837L36.8423 6.74833C36.8782 6.67661 36.9858 6.7045 36.9858 6.78419V38.2438V38.2399Z" fill="black"/>
</svg>
