<svg width="16" height="16" viewBox="0 0 16 16" fill="none" xmlns="http://www.w3.org/2000/svg">
<path d="M8.34361 0.754774C9.11501 0.742676 9.88075 0.748967 10.646 0.742676C10.6715 1.72557 11.0597 2.61023 11.6775 3.26549L11.6766 3.26452C12.3415 3.87962 13.2066 4.27839 14.1604 4.34614L14.1736 4.34711V6.78427C13.2726 6.76104 12.4254 6.54762 11.6615 6.18079L11.7001 6.19724C11.3307 6.01479 11.0183 5.8275 10.7214 5.61844L10.7459 5.63489C10.7403 7.40082 10.7516 9.16674 10.7341 10.9264C10.6856 11.8231 10.3953 12.641 9.92975 13.3238L9.93918 13.3088C9.16071 14.4539 7.89972 15.2054 6.46578 15.2499H6.45918C6.40122 15.2529 6.3329 15.2543 6.2641 15.2543C5.44888 15.2543 4.68691 15.021 4.03756 14.616L4.05641 14.6271C2.87458 13.8968 2.05936 12.6473 1.90857 11.194L1.90668 11.1741C1.8949 10.8717 1.88925 10.5692 1.90103 10.273C2.13193 7.96026 4.01871 6.17111 6.31216 6.17111C6.56992 6.17111 6.8225 6.19385 7.06801 6.23692L7.04162 6.23305C7.0534 7.12787 7.01806 8.02317 7.01806 8.91799C6.81873 8.84394 6.58877 8.80087 6.34892 8.80087C5.46867 8.80087 4.7199 9.37871 4.44282 10.1854L4.43857 10.2C4.3759 10.4066 4.33962 10.6442 4.33962 10.8901C4.33962 10.9898 4.34574 11.0885 4.35705 11.1853L4.35611 11.1737C4.51256 12.1638 5.33908 12.911 6.33572 12.911C6.36447 12.911 6.39274 12.9105 6.42102 12.9091H6.41678C7.10618 12.8878 7.70463 12.5069 8.04297 11.9441L8.04768 11.9354C8.1735 11.7554 8.25973 11.5376 8.28848 11.3009L8.28895 11.2942C8.34785 10.2116 8.32429 9.13528 8.32995 8.05269C8.3356 5.61554 8.32429 3.18419 8.34173 0.753323L8.34361 0.754774Z" fill="black"/>
</svg>
