<svg width="15" height="21" viewBox="0 0 15 21" fill="none" xmlns="http://www.w3.org/2000/svg">
<path opacity="0.4" fill-rule="evenodd" clip-rule="evenodd" d="M6.43543 1.63424H4.03233C2.70513 1.63424 1.62922 2.71346 1.62922 4.04474C1.62922 5.37603 2.70513 6.45525 4.03233 6.45525H6.43543V1.63424ZM6.43543 0H8.06465H10.4678C12.6948 0 14.5 1.81088 14.5 4.04474C14.5 5.36299 13.8714 6.53395 12.8983 7.27237C13.8714 8.0108 14.5 9.18176 14.5 10.5C14.5 12.7339 12.6948 14.5448 10.4678 14.5448C9.5673 14.5448 8.73578 14.2487 8.06465 13.7483V14.5448V16.9553C8.06465 19.1891 6.25931 21 4.03233 21C1.80533 21 0 19.1891 0 16.9553C0 15.6369 0.628685 14.466 1.60172 13.7276C0.628685 12.9892 0 11.8182 0 10.5C0 9.18176 0.6287 8.0108 1.60175 7.27238C0.6287 6.53395 0 5.36299 0 4.04474C0 1.81088 1.80533 0 4.03233 0H6.43543ZM8.06465 1.63424V6.45525H10.4678C11.795 6.45525 12.8708 5.37603 12.8708 4.04474C12.8708 2.71346 11.795 1.63424 10.4678 1.63424H8.06465ZM4.03233 12.9105H6.43543V10.5062V10.5V10.4938V8.0895H4.03233C2.70513 8.0895 1.62922 9.16872 1.62922 10.5C1.62922 11.8281 2.69998 12.9053 4.02279 12.9105L4.03233 12.9105ZM1.62922 16.9553C1.62922 15.6271 2.69998 14.5499 4.02279 14.5447L4.03233 14.5448H6.43543V16.9553C6.43543 18.2865 5.35952 19.3658 4.03233 19.3658C2.70513 19.3658 1.62922 18.2865 1.62922 16.9553ZM8.06465 10.4952C8.06724 9.16613 9.14215 8.0895 10.4678 8.0895C11.795 8.0895 12.8708 9.16872 12.8708 10.5C12.8708 11.8313 11.795 12.9105 10.4678 12.9105C9.14215 12.9105 8.06724 11.8339 8.06465 10.5048V10.4952Z" fill="black"/>
</svg>
