<svg width="22" height="21" viewBox="0 0 22 21" fill="none" xmlns="http://www.w3.org/2000/svg">
<path opacity="0.4" fill-rule="evenodd" clip-rule="evenodd" d="M10.75 0C4.81062 0 0 4.8176 0 10.7656C0 15.5294 3.07719 19.553 7.35031 20.9794C7.88781 21.0736 8.08937 20.7507 8.08937 20.4681C8.08937 20.2124 8.07594 19.3646 8.07594 18.463C5.375 18.9609 4.67625 17.8036 4.46125 17.198C4.34031 16.8885 3.81625 15.9331 3.35938 15.6774C2.98312 15.4755 2.44562 14.9776 3.34594 14.9642C4.1925 14.9507 4.79719 15.7447 4.99875 16.0676C5.96625 17.6959 7.51156 17.2384 8.12969 16.9558C8.22375 16.256 8.50594 15.785 8.815 15.5159C6.42312 15.2468 3.92375 14.3182 3.92375 10.2004C3.92375 9.02963 4.34031 8.06073 5.02563 7.30714C4.91813 7.038 4.54187 5.93453 5.13312 4.45426C5.13312 4.45426 6.03344 4.17166 8.08937 5.55773C8.94937 5.31551 9.86313 5.19439 10.7769 5.19439C11.6906 5.19439 12.6044 5.31551 13.4644 5.55773C15.5203 4.15821 16.4206 4.45426 16.4206 4.45426C17.0119 5.93453 16.6356 7.038 16.5281 7.30714C17.2134 8.06073 17.63 9.01618 17.63 10.2004C17.63 14.3317 15.1172 15.2468 12.7253 15.5159C13.115 15.8523 13.4509 16.4983 13.4509 17.5075C13.4509 18.9474 13.4375 20.1047 13.4375 20.4681C13.4375 20.7507 13.6391 21.0871 14.1766 20.9794C18.4228 19.553 21.5 15.5159 21.5 10.7656C21.5 4.8176 16.6894 0 10.75 0Z" fill="#1B1F23"/>
</svg>
