<svg width="517" height="417" viewBox="0 0 517 417" fill="none" xmlns="http://www.w3.org/2000/svg">
<path d="M276.115 33.5383C289.743 14.107 308.045 1.45569 331.783 5.89478C342.015 7.80822 349.753 11.1079 355.035 15.9377C360.471 20.9083 362.901 27.1308 363.112 33.8723C363.317 40.4253 361.436 47.3741 358.552 54.2502C355.649 61.1699 351.584 68.355 347.078 75.469C342.566 82.5933 337.53 89.7734 332.647 96.6594C327.736 103.587 323.006 110.181 318.976 116.293C314.927 122.433 311.756 127.834 309.883 132.338C308.438 135.813 308.032 138.139 308.104 139.618C309.166 139.353 310.775 138.748 313.01 137.593C318.851 134.575 326.964 128.9 336.724 121.339C356.184 106.264 380.975 84.6669 405.201 64.4329C429.194 44.3935 452.803 25.5397 469.358 16.6184C473.529 14.3708 477.476 12.6278 481.021 11.6877C484.44 10.7814 488.273 10.4091 491.648 11.9338C495.424 13.6394 497.334 17.0807 497.94 20.9192C498.516 24.5669 498.029 29.0127 496.808 34.0901C496.244 36.433 494.959 38.9461 493.425 41.4153C491.842 43.9627 489.775 46.8081 487.346 49.8694C482.486 55.995 475.962 63.2601 468.442 71.1682C453.393 86.9958 434.067 105.696 415.413 123.51C396.71 141.371 378.715 158.31 366.164 170.757C362.141 174.747 358.738 178.219 356.076 181.073C359.187 180.195 362.886 179.034 367.043 177.669C378.744 173.828 393.964 168.423 408.159 164.079C422.209 159.781 436.252 156.19 445.712 156.283C448.141 156.307 450.542 156.57 452.689 157.273C454.855 157.981 457.058 159.239 458.574 161.436C461.711 165.982 460.172 171.613 457.619 176.519C455.252 181.066 450.962 185.309 445.873 189.225C440.702 193.203 434.294 197.152 427.209 201.002C413.035 208.705 395.686 216.262 379.047 223.073C370.712 226.486 362.517 229.727 354.955 232.714C347.674 235.591 341 238.224 335.305 240.568C337.661 240.1 340.189 239.576 342.872 238.996C359.744 235.351 383.103 229.567 406.024 224.799C429.125 219.994 452.875 215.969 471.761 215.688C481.176 215.547 489.778 216.325 496.61 218.635C503.494 220.962 509.288 225.123 511.539 232.113C512.206 234.183 511.673 236.105 510.774 237.478C509.985 238.683 508.913 239.505 508.068 240.048C506.35 241.152 504.044 242.054 501.597 242.833C496.581 244.431 489.406 245.992 480.98 247.533C464.063 250.627 441.194 253.796 418.391 257.022C395.499 260.259 372.664 263.555 355.561 266.918C352.133 267.592 348.969 268.263 346.105 268.929C357.289 268.522 372.271 267.968 388.076 269.026C420.912 271.223 460.044 280.553 475.318 315.811H475.319C476.526 318.596 477.126 321.706 476.14 324.743C475.122 327.877 472.765 329.883 470.252 331.1C465.587 333.359 458.721 333.73 451.379 333.361C436.256 332.6 414.802 328.368 392.896 323.432C370.609 318.41 348.291 312.768 329.959 308.753C320.892 306.767 313.136 305.259 307.284 304.506C304.348 304.128 302.04 303.961 300.358 303.988C299.954 303.994 299.625 304.014 299.359 304.035C299.757 305.124 300.645 306.746 302.221 308.953C305.963 314.195 311.834 320.438 317.783 327.284C323.399 333.746 329.306 340.987 331.721 347.399C332.954 350.673 333.633 354.65 331.888 358.406C330.1 362.253 326.432 364.477 322.135 365.684C313.4 368.136 302.569 365.869 292.082 362.031C281.366 358.11 269.999 352.159 259.697 346.055C249.368 339.934 239.964 333.573 233.151 328.749C229.952 326.484 227.318 324.551 225.418 323.136C225.104 323.424 224.769 323.735 224.411 324.062C221.785 326.459 217.997 329.883 213.342 333.998C204.035 342.225 191.242 353.235 177.313 364.343C163.403 375.437 148.273 386.698 134.31 395.388C127.328 399.733 120.559 403.484 114.321 406.255C108.144 408.999 102.19 410.917 96.9111 411.333C94.305 411.539 90.4474 411.278 88.1348 408.076C85.9121 405 86.7207 401.354 87.4854 399.152C89.1528 394.349 93.5792 388.06 99.1914 381.219C110.683 367.212 129.267 348.429 148.786 329.727C168.351 310.98 189.021 292.159 204.79 278.032C211.444 272.072 217.229 266.944 221.694 263.006C216.343 262.887 209.546 262.701 201.69 262.408C181.814 261.667 155.123 260.248 127.931 257.533C100.784 254.823 72.9327 250.803 50.8174 244.809C39.773 241.816 29.9363 238.272 22.2725 234.028C14.7363 229.854 8.53272 224.581 6.00879 217.751C4.69206 214.188 4.5843 210.526 6.16406 207.134C7.67907 203.881 10.4346 201.552 13.5029 199.863C19.522 196.549 28.4653 194.763 38.6807 193.838C59.3664 191.966 88.1112 193.431 116.984 196.146C145.943 198.868 175.35 202.879 197.497 206.206C208.576 207.87 217.849 209.365 224.355 210.444C226.178 210.746 227.784 211.016 229.151 211.247C229.245 210.06 229.356 208.698 229.487 207.174C230.012 201.083 230.855 192.409 232.131 182.055C234.68 161.366 238.967 133.873 245.924 106.819C252.855 79.8641 262.546 52.8858 276.115 33.5383Z" fill="#2C806B"/>
</svg>
