<svg width="16" height="16" viewBox="0 0 16 16" fill="none" xmlns="http://www.w3.org/2000/svg">
<g clip-path="url(#clip0_222_20300)">
<path fill-rule="evenodd" clip-rule="evenodd" d="M6.39075 10.0688V5.57934C7.98452 6.32929 9.21887 7.05375 10.6788 7.83481C9.47467 8.50258 7.98452 9.25184 6.39075 10.0688ZM15.2728 3.34653C14.9979 2.98432 14.5293 2.70237 14.0305 2.60903C12.5642 2.33059 3.41679 2.3298 1.95132 2.60903C1.55129 2.68402 1.19507 2.86529 0.889066 3.14692C-0.40029 4.34364 0.00373294 10.7613 0.314518 11.8008C0.445206 12.2508 0.614152 12.5753 0.82692 12.7883C1.10105 13.07 1.47637 13.2639 1.90749 13.3508C3.11476 13.6005 9.33443 13.7402 14.005 13.3883C14.4353 13.3133 14.8162 13.1132 15.1166 12.8196C16.3087 11.6276 16.2275 4.84961 15.2728 3.34653Z" fill="black"/>
</g>
<defs>
<clipPath id="clip0_222_20300">
<rect width="16" height="16" fill="white"/>
</clipPath>
</defs>
</svg>
