<svg width="137" height="137" viewBox="0 0 137 137" fill="none" xmlns="http://www.w3.org/2000/svg" aria-hidden="true">
  <path
    fill-rule="evenodd"
    clip-rule="evenodd"
    d="M75.0908 0C76.4344 0.135198 77.7663 0.310864 79.0859 0.522583C78.3069 4.12181 80.4847 7.73537 84.0805 8.69885C87.6798 9.66326 91.3752 7.61738 92.4963 4.10461C93.7559 4.58369 94.9972 5.09991 96.22 5.6499C94.5307 8.92611 95.6986 12.9855 98.9247 14.8481C102.147 16.7085 106.239 15.6937 108.234 12.601C109.324 13.3886 110.39 14.2076 111.43 15.0565C108.961 17.7842 109.042 21.9985 111.672 24.6289C114.302 27.2593 118.516 27.3392 121.243 24.8704C122.092 25.9105 122.911 26.976 123.699 28.0657C120.606 30.0608 119.592 34.1537 121.453 37.3762C123.315 40.6022 127.373 41.7688 130.649 40.0801C131.199 41.3029 131.716 42.544 132.195 43.8037C128.683 44.9248 126.637 48.6213 127.601 52.2205C128.565 55.8162 132.178 57.993 135.777 57.2141C135.989 58.5337 136.165 59.8656 136.3 61.2092C132.624 61.3905 129.699 64.4294 129.699 68.1505C129.699 71.8716 132.624 74.9095 136.3 75.0908C136.165 76.4345 135.989 77.7664 135.777 79.0859C132.179 78.3076 128.565 80.4851 127.602 84.0806C126.638 87.6795 128.683 91.3749 132.195 92.4963C131.716 93.7559 131.2 94.9972 130.65 96.22C127.374 94.5313 123.315 95.6989 121.453 98.9248C119.593 102.147 120.607 106.239 123.699 108.234C122.912 109.324 122.093 110.389 121.244 111.429C118.517 108.96 114.301 109.041 111.671 111.671C109.041 114.302 108.96 118.517 111.429 121.244C110.389 122.093 109.324 122.912 108.234 123.699C106.239 120.607 102.147 119.592 98.9247 121.453C95.6989 123.315 94.5315 127.373 96.22 130.649C94.9971 131.199 93.756 131.716 92.4963 132.195C91.3751 128.683 87.6796 126.637 84.0805 127.601C80.4848 128.565 78.3071 132.178 79.0859 135.777C77.7663 135.989 76.4344 136.165 75.0908 136.3C74.9095 132.624 71.8716 129.699 68.1505 129.699C64.4293 129.699 61.3905 132.624 61.2092 136.3C59.8656 136.165 58.5337 135.989 57.2141 135.777C57.9926 132.178 55.816 128.565 52.2205 127.602C48.6214 126.638 44.925 128.683 43.8037 132.195C42.5441 131.716 41.3028 131.2 40.08 130.65C41.769 127.374 40.6023 123.315 37.3762 121.453C34.1538 119.593 30.0608 120.607 28.0656 123.699C26.9759 122.911 25.9105 122.092 24.8703 121.243C27.3391 118.516 27.2593 114.303 24.6289 111.672C21.9985 109.042 17.7843 108.961 15.0565 111.43C14.2076 110.39 13.3886 109.324 12.6009 108.234C15.6939 106.239 16.7086 102.147 14.8481 98.9248C12.9856 95.6988 8.92707 94.531 5.65093 96.22C5.10088 94.9971 4.58378 93.756 4.10466 92.4963C7.61775 91.3754 9.66432 87.679 8.69986 84.0796C7.73627 80.4839 4.12179 78.3058 0.522534 79.085C0.310884 77.7657 0.135166 76.4341 0 75.0908C3.6766 74.91 6.60196 71.872 6.60196 68.1505C6.60196 64.429 3.67662 61.39 0 61.2092C0.135217 59.8656 0.310797 58.5337 0.522534 57.2141C4.12183 57.9932 7.73539 55.8163 8.69889 52.2205C9.66332 48.6211 7.61759 44.9247 4.10466 43.8037C4.58374 42.5442 5.09996 41.3028 5.64996 40.0801C8.92624 41.7697 12.9854 40.6025 14.8481 37.3762C16.7086 34.1536 15.694 30.0607 12.6009 28.0657C13.3883 26.9764 14.207 25.911 15.0556 24.8712C17.7831 27.3407 21.9982 27.2601 24.6289 24.6299C27.2596 21.9992 27.3409 17.7832 24.8713 15.0555C25.9111 14.2069 26.9763 13.3884 28.0656 12.601C30.0606 15.6943 34.1535 16.7087 37.3762 14.8481C40.6024 12.9855 41.7693 8.92709 40.08 5.65088C41.3029 5.10082 42.544 4.58375 43.8037 4.10461C44.9245 7.61786 48.6219 9.66432 52.2214 8.69983C55.8172 7.73623 57.9943 4.1219 57.2151 0.522583C58.5343 0.310914 59.8659 0.135184 61.2092 0C61.39 3.67662 64.429 6.60193 68.1505 6.60193C71.8719 6.60193 74.9099 3.6766 75.0908 0ZM68.1505 13.551C37.996 13.551 13.551 37.996 13.551 68.1505C13.551 98.305 37.996 122.75 68.1505 122.75C98.305 122.75 122.75 98.305 122.75 68.1505C122.75 37.996 98.305 13.551 68.1505 13.551Z"
    fill="#000000"
    fill-opacity="0.3"
  />
</svg>
