<svg width="426" height="421" viewBox="0 0 426 421" fill="none" xmlns="http://www.w3.org/2000/svg">
<g opacity="0.1">
<path d="M23.5644 309.622C79.3401 416.046 212.867 452.781 315.815 390.953C388.23 353.047 431.841 273.344 425.366 191.982C414.226 48.8325 263.843 -40.6059 132.667 18.4327C128.504 20.1888 123.704 22.7615 119.654 24.7783C115.205 27.3559 110.076 30.4893 105.597 32.9882C8.49703 87.2308 -28.4026 211.398 23.5644 309.617V309.622ZM34.9955 303.665C-12.5272 213.464 21.0515 100.497 110.076 50.7756C116.003 47.6766 122.537 44.0118 128.395 40.7751C130.78 39.6585 134.426 37.9516 136.821 36.8153C241.4 -9.25177 363.87 47.3716 395.715 157.116C419.587 236.79 385.811 326.101 315.071 370.131C312.82 371.661 309.243 373.702 306.833 375.05C302.882 377.274 297.989 380.205 294.057 382.522C201.505 433.267 83.5381 397.338 34.9955 303.665Z" fill="black"/>
<path d="M50.0374 301.607C90.3312 383.315 189.336 419.666 273.037 383.92C274.92 383.081 278.244 381.572 280.089 380.743L280.595 380.513C280.759 380.433 280.904 380.344 281.054 380.265L284.702 378.245C287.947 376.352 292.564 374.093 295.898 372.359C377.871 328.257 410.387 225.142 368.441 141.916C328.826 61.4306 231.788 24.4238 148.742 58.0519C146.401 59.0266 143.029 60.4465 140.754 61.4821C138.895 62.3772 135.603 63.9845 133.781 64.8702L133.285 65.1139C133.126 65.1983 132.985 65.292 132.831 65.3764L129.244 67.5086C127.455 68.6051 123.798 70.6999 121.943 71.684C40.6487 115.701 8.23105 219.107 50.0374 301.598V301.607ZM57.2767 297.989C17.7648 219.669 49.7845 122.314 128.153 83.0339C131.674 81.3469 136.122 78.732 139.559 76.8809C142.168 75.7609 145.441 74.1723 148.096 73.1461C225.045 41.5003 315.312 75.3251 352.15 150.06C389.409 223.395 362.967 315.787 292.699 358.478C290.761 359.777 287.769 361.417 285.69 362.551C283.868 363.521 280.267 365.583 278.511 366.665L274.924 368.797C274.774 368.882 274.625 368.98 274.475 369.06L274.035 369.271C272.424 370.058 269.492 371.469 267.863 372.27C189.701 408.518 95.5102 375.321 57.2814 297.989H57.2767Z" fill="black"/>
<path d="M73.6576 282.652C97.6179 334.757 153.594 368.81 210.985 366.544C230.118 365.959 249.133 361.555 266.608 353.7L266.837 353.572L272.603 350.415C345.867 318.048 380.035 228.838 344.818 154.938C310.568 81.1436 220.172 49.3888 147.27 85.7401L141.614 89.0892L141.943 88.9201C124.733 97.3226 109.2 109.111 96.5371 123.421C58.0963 166.105 48.6395 230.944 73.653 282.647L73.6576 282.652ZM77.8937 280.664C45.0583 212.042 76.1764 127.958 145.891 97.3089L145.987 97.2632L146.216 97.1352L151.982 93.9781L151.643 94.1517C219.32 63.5391 300.854 93.6125 332.11 160.892C364.061 227.741 335.077 309.778 268.252 342.058L268.005 342.182L267.918 342.237L262.258 345.586L262.583 345.417C194.499 379.273 109.896 349.552 77.88 280.669L77.8937 280.664Z" fill="black"/>
<path d="M96.6404 267.786C114.971 311.418 160.112 341.036 207.333 340.647C223.085 340.647 238.837 337.521 253.415 331.48L253.603 331.378L257.404 329.303C318.391 304.545 348.9 231.725 321.844 169.765C295.733 108.074 222.25 79.4528 161.518 107.376L161.317 107.466L161.214 107.524L157.485 109.728C144.69 115.398 129.884 125.637 119.566 136.901C86.8617 171.129 77.4355 224.463 96.6359 267.786H96.6404ZM98.6791 266.901C73.1172 208.585 101.289 139.002 160.184 115.17L160.286 115.125L160.474 115.022L164.275 112.948L163.971 113.1C221.202 89.2317 288.354 116.578 312.645 173.745C337.497 230.665 311.253 298.437 254.651 323.781L254.45 323.875L250.623 326.137L250.917 325.99C193.285 352.532 123.532 325.435 98.6746 266.91L98.6791 266.901Z" fill="black"/>
<path d="M117.228 250.892C128.363 280.982 154.941 304.471 186.031 311.855C204.749 316.473 224.807 315.337 242.929 308.691L243.063 308.619L245.042 307.551L244.811 307.658C288.783 292.179 316.429 244.719 308.373 198.564C300.989 151.846 259.975 116.19 212.912 115.667C199.892 115.421 186.88 117.875 174.852 122.671L174.763 122.725L172.819 123.852L173.051 123.744C123.434 143.014 97.9139 201.134 117.233 250.892H117.228ZM117.887 250.641C98.9147 201.344 124.742 144.699 174.287 127.03L174.381 126.994L174.514 126.922L176.494 125.858C211.266 113.142 252.217 122.515 278.098 150.666C323.613 199.726 305.437 279.892 243.325 304.453L241.381 305.58L241.608 305.472C192.939 325.224 136.258 300.077 117.887 250.641Z" fill="black"/>
<path d="M139.12 231.621C147.606 260.914 174.707 283.266 205.015 286.21C259.974 292.004 303.449 239.698 287.387 186.632C271.338 133.558 206.157 114.213 163.664 149.583C140.088 168.883 129.938 202.537 139.12 231.621ZM139.12 231.621C130.009 202.626 140.347 169.021 164.199 150.24C206.068 116.443 269.286 135.827 284.83 187.41C300.5 238.961 258.671 290.226 205.095 285.379C174.841 283.011 147.611 260.807 139.12 231.621Z" fill="black"/>
</g>
</svg>
