<svg width="64" height="39" viewBox="0 0 64 39" fill="none" xmlns="http://www.w3.org/2000/svg">
<g clip-path="url(#clip0_905_23084)">
<path fill-rule="evenodd" clip-rule="evenodd" d="M36.8483 21.3543C36.3203 25.5853 30.619 28.935 29.7322 24.4715C28.8454 20.0079 24.5094 9.16873 21.9643 5.52234C19.418 1.875 27.0625 0.395191 28.9422 1.31525C30.8218 2.23422 38.4906 8.19005 36.8483 21.3543Z" fill="#F9ACCE"/>
<path fill-rule="evenodd" clip-rule="evenodd" d="M14.317 34.0178C10.4476 32.7905 5.78429 27.1197 3.90009 21.3542C2.01556 15.5861 3.62536 11.9069 7.49346 13.132C11.3641 14.3614 19.664 23.497 21.5485 29.2652C23.433 35.0333 18.1863 35.245 14.317 34.0178Z" fill="#FEC735"/>
<path fill-rule="evenodd" clip-rule="evenodd" d="M44.5971 15.8005C44.9999 11.1891 49.1475 7.77352 53.8596 8.17159C58.5716 8.56967 62.7011 12.7293 61.6609 17.2435C60.7368 21.2506 54.1469 32.0404 49.4351 31.6412C44.723 31.2431 44.1929 20.4126 44.5971 15.8005Z" fill="#00AF90"/>
</g>
<defs>
<clipPath id="clip0_905_23084">
<rect width="63.3976" height="38.3293" fill="white"/>
</clipPath>
</defs>
</svg>
